<svg xmlns="http://www.w3.org/2000/svg" width="17.854" height="17.854" viewBox="0 0 17.854 17.854"><defs><style>.a{fill:#842232;}</style></defs><path class="a" d="M14.666,0H3.188A3.192,3.192,0,0,0,0,3.188V14.666a3.192,3.192,0,0,0,3.188,3.188H14.666a3.192,3.192,0,0,0,3.188-3.188V3.188A3.192,3.192,0,0,0,14.666,0Zm1.913,14.666a1.913,1.913,0,0,1-1.913,1.913H3.188a1.913,1.913,0,0,1-1.913-1.913V3.188A1.913,1.913,0,0,1,3.188,1.275H14.666a1.913,1.913,0,0,1,1.913,1.913Z"/><g transform="translate(5.101 5.101)"><path class="a" d="M143.547,139.721H141v-2.551a.638.638,0,0,0-1.275,0v2.551h-2.551a.638.638,0,1,0,0,1.275h2.551v2.551a.638.638,0,1,0,1.275,0V141h2.551a.638.638,0,1,0,0-1.275Z" transform="translate(-136.533 -136.533)"/></g></svg>